<svg width="9" height="8" viewBox="0 0 9 8" fill="none" xmlns="http://www.w3.org/2000/svg">
<path d="M8.69638 1.57572L6.27243 3.99992L8.69638 6.42402C9.05693 6.78471 9.05693 7.36897 8.69638 7.72966C8.51623 7.90981 8.28005 7.99996 8.04397 7.99996C7.80751 7.99996 7.5713 7.90995 7.39129 7.72966L4.96681 5.30529L2.54251 7.72964C2.36238 7.90979 2.12617 7.99993 1.8899 7.99993C1.65368 7.99993 1.41763 7.90993 1.23735 7.72964C0.876797 7.36911 0.876797 6.78482 1.23735 6.424L3.66123 3.9999L1.23721 1.57572C0.876659 1.21516 0.876659 0.630758 1.23721 0.270207C1.59769 -0.090069 2.18175 -0.090069 2.54237 0.270207L4.96679 2.69442L7.39101 0.270207C7.7517 -0.090069 8.33583 -0.090069 8.69625 0.270207C9.05694 0.630758 9.05693 1.21516 8.69638 1.57572Z" fill="currentColor"/>
</svg>
