<svg width="30" height="30" viewBox="0 0 30 30" fill="none" xmlns="http://www.w3.org/2000/svg">
<path d="M12.6152 6.19336C15.293 6.30469 17.2852 7.35352 17.3027 7.35937L17.2793 7.40039C18.416 7.40039 19.5117 7.66992 20.5664 8.20312C21.2637 8.56641 21.9727 9.06445 22.6934 9.70898C23.2969 10.2422 23.6309 10.5117 23.6953 10.5117C23.8535 10.5117 23.9883 10.459 24.0937 10.3535C24.334 10.1543 24.9199 9.23438 25.8516 7.60547C26.7832 5.97656 27.2461 5.0332 27.2461 4.77539C27.2461 4.54687 27.1113 4.28906 26.8477 3.99023C24.3867 1.33008 20.9883 0 16.6582 0C12.6738 0 9.38672 1.48242 6.80859 4.45312C5.23828 6.25195 4.17188 8.29687 3.59766 10.5879C6.60938 6.77344 10.1602 6.08789 12.6152 6.19336Z" fill="#F53B49"/>
<path d="M26.0977 22.2188C25.1484 20.7891 24.5684 19.9512 24.3516 19.7109C24.2168 19.5645 24.082 19.4883 23.9531 19.4883C23.8887 19.4883 23.5605 19.7402 22.9688 20.25C22.2598 20.8535 21.5625 21.3223 20.8828 21.6562C19.8398 22.166 18.7383 22.418 17.5723 22.418C15.8789 22.418 14.4785 21.8613 13.3711 20.748C13.5879 21.5156 13.9102 22.4121 14.373 23.3437C15.4336 25.4766 17.4785 28.1719 21.2695 29.373C23.5723 28.7109 25.5293 27.4219 27.1406 25.5059C27.4219 25.1602 27.5625 24.8789 27.5625 24.6621C27.5625 24.5215 27.0762 23.7012 26.0977 22.2188Z" fill="#F53B49"/>
<path d="M13.8809 23.4962C13.3711 22.4709 13.0371 21.4865 12.8145 20.672C12.6973 20.5431 12.5801 20.4084 12.4688 20.2677C11.3848 18.8908 10.8457 17.1857 10.8457 15.1525C10.8457 13.1486 11.3848 11.4611 12.4688 10.0959C13.623 8.64859 15.1641 7.91617 17.0801 7.89273C16.6816 7.69937 14.8711 6.8732 12.5098 6.77945C10.0605 6.67984 6.50977 7.36539 3.50977 11.2209L3.46875 11.1916C3.1582 12.4806 3 13.8517 3 15.2931C3 19.4943 4.26562 22.9689 6.79102 25.7228C9.38672 28.5705 12.7676 29.9943 16.9395 29.9943C18.2695 29.9943 19.5059 29.8361 20.666 29.5255C16.9512 28.2892 14.9355 25.6173 13.8809 23.4962Z" fill="#A6A6A6"/>
</svg>
