<svg viewBox="0 0 197 30" fill="none" xmlns="http://www.w3.org/2000/svg">
<g clip-path="url(#clip0_5001_56325)">
<rect width="197" height="30" fill="#1A1A25"/>
<path d="M9.70312 7.20312C11.3177 7.20312 12.7083 7.51562 13.875 8.14062C15.0417 8.75521 15.9427 9.65104 16.5781 10.8281C17.2135 12.0052 17.5312 13.4427 17.5312 15.1406V17.4531H6.26562C6.31771 18.7969 6.71875 19.8542 7.46875 20.625C8.22917 21.3854 9.28125 21.7656 10.625 21.7656C11.7396 21.7656 12.7604 21.651 13.6875 21.4219C14.6146 21.1927 15.5677 20.849 16.5469 20.3906V24.0781C15.6823 24.5052 14.776 24.8177 13.8281 25.0156C12.8906 25.2135 11.75 25.3125 10.4062 25.3125C8.65625 25.3125 7.10417 24.9896 5.75 24.3438C4.40625 23.6979 3.34896 22.7135 2.57812 21.3906C1.81771 20.0677 1.4375 18.401 1.4375 16.3906C1.4375 14.349 1.78125 12.651 2.46875 11.2969C3.16667 9.93229 4.13542 8.91146 5.375 8.23438C6.61458 7.54688 8.05729 7.20312 9.70312 7.20312ZM9.73438 10.5938C8.80729 10.5938 8.03646 10.8906 7.42188 11.4844C6.81771 12.0781 6.46875 13.0104 6.375 14.2812H13.0625C13.0521 13.5729 12.9219 12.9427 12.6719 12.3906C12.4323 11.8385 12.0677 11.401 11.5781 11.0781C11.099 10.7552 10.4844 10.5938 9.73438 10.5938Z" fill="white"/>
<path d="M64.375 16.2344C64.375 17.6927 64.1771 18.9844 63.7812 20.1094C63.3958 21.2344 62.8281 22.1875 62.0781 22.9688C61.3385 23.7396 60.4427 24.3229 59.3906 24.7188C58.349 25.1146 57.1719 25.3125 55.8594 25.3125C54.6302 25.3125 53.5 25.1146 52.4688 24.7188C51.4479 24.3229 50.5573 23.7396 49.7969 22.9688C49.0469 22.1875 48.4635 21.2344 48.0469 20.1094C47.6406 18.9844 47.4375 17.6927 47.4375 16.2344C47.4375 14.2969 47.7812 12.6562 48.4688 11.3125C49.1562 9.96875 50.1354 8.94792 51.4062 8.25C52.6771 7.55208 54.1927 7.20312 55.9531 7.20312C57.5885 7.20312 59.0365 7.55208 60.2969 8.25C61.5677 8.94792 62.5625 9.96875 63.2812 11.3125C64.0104 12.6562 64.375 14.2969 64.375 16.2344ZM52.2969 16.2344C52.2969 17.3802 52.4219 18.3438 52.6719 19.125C52.9219 19.9062 53.3125 20.4948 53.8438 20.8906C54.375 21.2865 55.0677 21.4844 55.9219 21.4844C56.7656 21.4844 57.4479 21.2865 57.9688 20.8906C58.5 20.4948 58.8854 19.9062 59.125 19.125C59.375 18.3438 59.5 17.3802 59.5 16.2344C59.5 15.0781 59.375 14.1198 59.125 13.3594C58.8854 12.5885 58.5 12.0104 57.9688 11.625C57.4375 11.2396 56.7448 11.0469 55.8906 11.0469C54.6302 11.0469 53.7135 11.4792 53.1406 12.3438C52.5781 13.2083 52.2969 14.5052 52.2969 16.2344ZM88.8281 7.20312C90.8073 7.20312 92.3021 7.71354 93.3125 8.73438C94.3333 9.74479 94.8438 11.3698 94.8438 13.6094V25H90.0625V14.7969C90.0625 13.5469 89.849 12.6042 89.4219 11.9688C88.9948 11.3333 88.3333 11.0156 87.4375 11.0156C86.1771 11.0156 85.2812 11.4688 84.75 12.375C84.2188 13.2708 83.9531 14.5573 83.9531 16.2344V25H79.1875V14.7969C79.1875 13.9635 79.0938 13.2656 78.9062 12.7031C78.7188 12.1406 78.4323 11.7188 78.0469 11.4375C77.6615 11.1562 77.1667 11.0156 76.5625 11.0156C75.6771 11.0156 74.9792 11.2396 74.4688 11.6875C73.9688 12.125 73.6094 12.776 73.3906 13.6406C73.1823 14.4948 73.0781 15.5417 73.0781 16.7812V25H68.3125V7.53125H71.9531L72.5938 9.76562H72.8594C73.2135 9.16146 73.6562 8.67188 74.1875 8.29688C74.7292 7.92188 75.3229 7.64583 75.9688 7.46875C76.6146 7.29167 77.2708 7.20312 77.9375 7.20312C79.2188 7.20312 80.3021 7.41146 81.1875 7.82812C82.0833 8.24479 82.7708 8.89062 83.25 9.76562H83.6719C84.1927 8.86979 84.9271 8.21875 85.875 7.8125C86.8333 7.40625 87.8177 7.20312 88.8281 7.20312ZM120.266 7.20312C122.245 7.20312 123.74 7.71354 124.75 8.73438C125.771 9.74479 126.281 11.3698 126.281 13.6094V25H121.5V14.7969C121.5 13.5469 121.286 12.6042 120.859 11.9688C120.432 11.3333 119.771 11.0156 118.875 11.0156C117.615 11.0156 116.719 11.4688 116.188 12.375C115.656 13.2708 115.391 14.5573 115.391 16.2344V25H110.625V14.7969C110.625 13.9635 110.531 13.2656 110.344 12.7031C110.156 12.1406 109.87 11.7188 109.484 11.4375C109.099 11.1562 108.604 11.0156 108 11.0156C107.115 11.0156 106.417 11.2396 105.906 11.6875C105.406 12.125 105.047 12.776 104.828 13.6406C104.62 14.4948 104.516 15.5417 104.516 16.7812V25H99.75V7.53125H103.391L104.031 9.76562H104.297C104.651 9.16146 105.094 8.67188 105.625 8.29688C106.167 7.92188 106.76 7.64583 107.406 7.46875C108.052 7.29167 108.708 7.20312 109.375 7.20312C110.656 7.20312 111.74 7.41146 112.625 7.82812C113.521 8.24479 114.208 8.89062 114.688 9.76562H115.109C115.63 8.86979 116.365 8.21875 117.312 7.8125C118.271 7.40625 119.255 7.20312 120.266 7.20312ZM138.391 7.20312C140.005 7.20312 141.396 7.51562 142.562 8.14062C143.729 8.75521 144.63 9.65104 145.266 10.8281C145.901 12.0052 146.219 13.4427 146.219 15.1406V17.4531H134.953C135.005 18.7969 135.406 19.8542 136.156 20.625C136.917 21.3854 137.969 21.7656 139.312 21.7656C140.427 21.7656 141.448 21.651 142.375 21.4219C143.302 21.1927 144.255 20.849 145.234 20.3906V24.0781C144.37 24.5052 143.464 24.8177 142.516 25.0156C141.578 25.2135 140.438 25.3125 139.094 25.3125C137.344 25.3125 135.792 24.9896 134.438 24.3438C133.094 23.6979 132.036 22.7135 131.266 21.3906C130.505 20.0677 130.125 18.401 130.125 16.3906C130.125 14.349 130.469 12.651 131.156 11.2969C131.854 9.93229 132.823 8.91146 134.062 8.23438C135.302 7.54688 136.745 7.20312 138.391 7.20312ZM138.422 10.5938C137.495 10.5938 136.724 10.8906 136.109 11.4844C135.505 12.0781 135.156 13.0104 135.062 14.2812H141.75C141.74 13.5729 141.609 12.9427 141.359 12.3906C141.12 11.8385 140.755 11.401 140.266 11.0781C139.786 10.7552 139.172 10.5938 138.422 10.5938ZM159.844 7.20312C160.083 7.20312 160.359 7.21875 160.672 7.25C160.995 7.27083 161.255 7.30208 161.453 7.34375L161.094 11.8125C160.938 11.7604 160.714 11.724 160.422 11.7031C160.141 11.6719 159.896 11.6562 159.688 11.6562C159.073 11.6562 158.474 11.7344 157.891 11.8906C157.318 12.0469 156.802 12.3021 156.344 12.6562C155.885 13 155.521 13.4583 155.25 14.0312C154.99 14.5938 154.859 15.2865 154.859 16.1094V25H150.094V7.53125H153.703L154.406 10.4688H154.641C154.984 9.875 155.411 9.33333 155.922 8.84375C156.443 8.34375 157.031 7.94792 157.688 7.65625C158.354 7.35417 159.073 7.20312 159.844 7.20312ZM171.719 25.3125C169.99 25.3125 168.516 25 167.297 24.375C166.078 23.7396 165.151 22.7604 164.516 21.4375C163.88 20.1146 163.562 18.4219 163.562 16.3594C163.562 14.224 163.922 12.4844 164.641 11.1406C165.37 9.78646 166.375 8.79167 167.656 8.15625C168.948 7.52083 170.443 7.20312 172.141 7.20312C173.349 7.20312 174.391 7.32292 175.266 7.5625C176.151 7.79167 176.922 8.06771 177.578 8.39062L176.172 12.0781C175.422 11.776 174.724 11.5312 174.078 11.3438C173.432 11.1458 172.786 11.0469 172.141 11.0469C171.307 11.0469 170.615 11.2448 170.062 11.6406C169.51 12.026 169.099 12.6094 168.828 13.3906C168.557 14.1719 168.422 15.151 168.422 16.3281C168.422 17.4844 168.568 18.4427 168.859 19.2031C169.151 19.9635 169.573 20.5312 170.125 20.9062C170.677 21.2708 171.349 21.4531 172.141 21.4531C173.13 21.4531 174.01 21.3229 174.781 21.0625C175.552 20.7917 176.302 20.4167 177.031 19.9375V24.0156C176.302 24.474 175.536 24.8021 174.734 25C173.943 25.2083 172.938 25.3125 171.719 25.3125ZM188.297 7.20312C189.911 7.20312 191.302 7.51562 192.469 8.14062C193.635 8.75521 194.536 9.65104 195.172 10.8281C195.807 12.0052 196.125 13.4427 196.125 15.1406V17.4531H184.859C184.911 18.7969 185.312 19.8542 186.062 20.625C186.823 21.3854 187.875 21.7656 189.219 21.7656C190.333 21.7656 191.354 21.651 192.281 21.4219C193.208 21.1927 194.161 20.849 195.141 20.3906V24.0781C194.276 24.5052 193.37 24.8177 192.422 25.0156C191.484 25.2135 190.344 25.3125 189 25.3125C187.25 25.3125 185.698 24.9896 184.344 24.3438C183 23.6979 181.943 22.7135 181.172 21.3906C180.411 20.0677 180.031 18.401 180.031 16.3906C180.031 14.349 180.375 12.651 181.062 11.2969C181.76 9.93229 182.729 8.91146 183.969 8.23438C185.208 7.54688 186.651 7.20312 188.297 7.20312ZM188.328 10.5938C187.401 10.5938 186.63 10.8906 186.016 11.4844C185.411 12.0781 185.062 13.0104 184.969 14.2812H191.656C191.646 13.5729 191.516 12.9427 191.266 12.3906C191.026 11.8385 190.661 11.401 190.172 11.0781C189.693 10.7552 189.078 10.5938 188.328 10.5938Z" fill="white"/>
<path d="M30.6152 6.19336C33.293 6.30469 35.2852 7.35352 35.3027 7.35937L35.2793 7.40039C36.416 7.40039 37.5117 7.66992 38.5664 8.20312C39.2637 8.56641 39.9727 9.06445 40.6934 9.70898C41.2969 10.2422 41.6309 10.5117 41.6953 10.5117C41.8535 10.5117 41.9883 10.459 42.0937 10.3535C42.334 10.1543 42.9199 9.23438 43.8516 7.60547C44.7832 5.97656 45.2461 5.0332 45.2461 4.77539C45.2461 4.54687 45.1113 4.28906 44.8477 3.99023C42.3867 1.33008 38.9883 0 34.6582 0C30.6738 0 27.3867 1.48242 24.8086 4.45312C23.2383 6.25195 22.1719 8.29687 21.5977 10.5879C24.6094 6.77344 28.1602 6.08789 30.6152 6.19336Z" fill="#F53B49"/>
<path d="M44.0977 22.2188C43.1484 20.7891 42.5684 19.9512 42.3516 19.7109C42.2168 19.5645 42.082 19.4883 41.9531 19.4883C41.8887 19.4883 41.5605 19.7402 40.9688 20.25C40.2598 20.8535 39.5625 21.3223 38.8828 21.6562C37.8398 22.166 36.7383 22.418 35.5723 22.418C33.8789 22.418 32.4785 21.8613 31.3711 20.748C31.5879 21.5156 31.9102 22.4121 32.373 23.3437C33.4336 25.4766 35.4785 28.1719 39.2695 29.373C41.5723 28.7109 43.5293 27.4219 45.1406 25.5059C45.4219 25.1602 45.5625 24.8789 45.5625 24.6621C45.5625 24.5215 45.0762 23.7012 44.0977 22.2188Z" fill="#F53B49"/>
<path d="M31.8809 23.4962C31.3711 22.4709 31.0371 21.4865 30.8145 20.672C30.6973 20.5431 30.5801 20.4084 30.4688 20.2677C29.3848 18.8908 28.8457 17.1857 28.8457 15.1525C28.8457 13.1486 29.3848 11.4611 30.4688 10.0959C31.623 8.64859 33.1641 7.91617 35.0801 7.89273C34.6816 7.69937 32.8711 6.8732 30.5098 6.77945C28.0605 6.67984 24.5098 7.36539 21.5098 11.2209L21.4688 11.1916C21.1582 12.4806 21 13.8517 21 15.2931C21 19.4943 22.2656 22.9689 24.791 25.7228C27.3867 28.5705 30.7676 29.9943 34.9395 29.9943C36.2695 29.9943 37.5059 29.8361 38.666 29.5255C34.9512 28.2892 32.9355 25.6173 31.8809 23.4962Z" fill="white"/>
</g>
<defs>
<clipPath id="clip0_5001_56325">
<rect width="197" height="30" fill="white"/>
</clipPath>
</defs>
</svg>
